<svg xmlns="http://www.w3.org/2000/svg" xmlns:xlink="http://www.w3.org/1999/xlink" version="1.1" x="0px" y="0px" viewBox="0 0 100 100" enable-background="new 0 0 100 100" xml:space="preserve"><path d="M90.558,26.459c-0.613,1.515-1.629,2.81-4.193,4.325c-0.023-0.001-1.803,0.874-3.577-0.715l-0.543-0.486  c0,0-2.968,2.081-2.332,4.949c0.093,0.408,0.21,0.849,0.34,1.327c0.571,2.118,1.323,4.903,0.584,8.764  c-0.707-1.664-1.779-3.843-2.877-4.819l-1.107-0.985L76.775,40.3c-0.004,0.093-0.479,8.607-3.708,14.28  c-0.647-2.824-2.124-8.38-4.211-10.856l-1.089,0.918c0.796,0.945,1.509,2.448,2.112,4.071c-1.481,2.042-2.641,4.651-2.697,4.777  c-4.047,9.54,0.232,19.208,0.417,19.614l0.324,0.708l0.677-0.382c0.012-0.007,1.107-0.615,2.021-0.23  c0.586,0.245,1.021,0.878,1.29,1.879c0.269,0.989,0.016,1.776-0.747,2.338c-1.531,1.125-4.482,1.024-6.442-0.226  c-2.668-1.699-6.291-11.229-7.462-14.756l-0.633-1.907l-0.71,1.88c-2.226,5.891-7.447,9.627-7.501,9.663l-1.423,1.005l1.72,0.28  c1.214,0.198,1.679,0.711,1.688,0.722l0.358,0.445l0.514-0.256c4.73-2.343,6.685,1.07,6.747,1.178  c0.333,0.714,0.378,1.265,0.135,1.645c-0.252,0.389-1.12,1.027-3.959,1.001c-1.73-0.025-3.482-0.205-5.337-0.396  c-3.031-0.313-6.165-0.635-9.267-0.229c-0.666,0.085-1.335,0.186-1.999,0.283c-3.969,0.59-7.719,1.147-9.217-1.332  c-2.304-3.814-5.137-2.739-5.194-2.713c-6.218,1.837-7.355,4.989-7.48,6.708c-0.232,3.217,2.458,6.439,7.194,8.622  c8.402,3.871,27.084,0.861,33.609-2.179c5.387-2.507,6.896-1.051,6.898-1.051l0.062,0.067c0.031,0.03,0.756,0.762,0.447,1.815  c-0.416,1.414-2.847,4.154-14.478,6.624c-13.608,2.887-28.383,0.962-35.929-4.687c-2.607-1.95-4.081-4.229-4.262-6.591  c-0.719-9.347,6.866-15.984,6.942-16.052l0.276-0.236l-0.031-0.361c-1.124-13.559,1.618-24.187,8.151-31.585  c8.487-9.615,20.994-11.136,25.977-11.344c9.409-0.392,11.687-5.131,11.799-5.376c0.035-0.095,3.499-8.938,10.405-8.938  c0.447,0,0.914,0.037,1.39,0.117l0.41,0.069l0.262-0.324c0.025-0.03,2.172-2.666,5.549-4.644c-0.23,1.689-0.611,4.505-0.805,5.999  l-0.077,0.613l0.597,0.164c0.608,0.168,0.723,0.266,0.723,0.266s2.821-2.375,4.96-3.411c-0.145,1.302-0.485,3.188-1.174,4.246  l-0.387,0.595l0.596,0.389c1.051,0.689,3.763,2.94,3.697,5.057c-0.103,3.224-0.21,4.358,1.923,6.127  C91.097,24.957,90.695,26.117,90.558,26.459z"></path></svg>