<?xml version="1.0"?>
<svg xmlns:rdf="http://www.w3.org/1999/02/22-rdf-syntax-ns#" xmlns="http://www.w3.org/2000/svg" xmlns:cc="http://creativecommons.org/ns#" xmlns:dc="http://purl.org/dc/elements/1.1/" xmlns:svg="http://www.w3.org/2000/svg" id="svg2" viewBox="0 0 288.81 400" version="1.0">
  <defs id="defs4">
    <filter id="filter3307" y="-.44118" width="1.073" height="1.8824" x="-.036512">
      <feGaussianBlur id="feGaussianBlur3309" stdDeviation="4.4566226"/>
    </filter>
    <filter id="filter3272">
      <feGaussianBlur id="feGaussianBlur3274" stdDeviation="9.8155088"/>
    </filter>
  </defs>
  <g id="layer1" transform="translate(-215.78 -26.458)">
    <path id="path3293" opacity=".55" d="m511.14 675.58a146.47 12.122 0 1 1 -292.95 0 146.47 12.122 0 1 1 292.95 0z" transform="matrix(.86378 0 0 4.9575 45.452 -2982.8)" filter="url(#filter3307)" fill="#484848"/>
    <path id="path3186" stroke-linejoin="round" d="m400.54 81.313c6.58-16.92 36.19-37.07 65.26-52.226 3.96 75.213-27.55 108.14-57.25 97.543 0.31-15.99 3.31-32.781-8.01-45.317z" fill-rule="evenodd" stroke="#000" stroke-linecap="round" stroke-width="5.2589" fill="#484848"/>
    <path id="path3178" stroke-linejoin="round" d="m379.07 326.26l84.14-69.42c18.83-19.61-8.44-50.08-18.23-76.43-8.3-36.15 34.19-49.22 53.29-72.92-11.22 23.84-46.2 41.74-33.66 71.52 6.55 26.41 31.8 65.62 19.64 79.23-36.44 43.3-70.12 45.35-105.18 68.02z" fill-rule="evenodd" stroke="#000" stroke-width="6.5736" fill="#484848"/>
    <path id="path3188" stroke-linejoin="round" d="m301.49 189.85l-47.28 58.16-18.66-6.48-17.14 21.23 22.13-8.56-14.1 20.49 23.24-13.34-10.16 22.12 20.46-16.85 5.73-12.35 56.38-63.25-20.6-1.17z" fill-rule="evenodd" stroke="#000" stroke-width="5.2589" fill="#484848"/>
    <path id="path3192" stroke-linejoin="round" d="m418.88 189.85l47.28 58.16 18.65-6.48 17.15 21.23-22.14-8.56 14.1 20.49-23.24-13.34 10.16 22.12-20.45-16.85-5.74-12.35-56.38-63.25 20.61-1.17z" fill-rule="evenodd" stroke="#000" stroke-width="5.2589" fill="#484848"/>
    <path id="path3198" stroke-linejoin="round" d="m420.01 344.35l4.71 8.04 21.15 15.65-27.72-11.5 14.76 21.84-22.01-14.78 8.08 24.12-20.17-19.82 0.9-12.14 20.3-11.41z" fill-rule="evenodd" stroke="#000" stroke-linecap="round" stroke-width="6.5736" fill="#484848"/>
    <path id="path2388" stroke-linejoin="round" d="m450.74 285.62c0 42.2-40.27 76.45-89.89 76.45-49.63 0-89.9-34.25-89.9-76.45 0-17.74 7.11-34.06 19.03-47.04 16.46-17.9 5.54-102.44 70.51-102.44 66.95 0 54.91 84.61 71.36 102.6 11.84 12.95 18.89 29.22 18.89 46.88z" stroke="#000" stroke-width="6.5736" fill="#484848"/>
    <path id="path3271" stroke-linejoin="round" d="m301.97 344.35l-4.71 8.04-21.15 15.65 27.72-11.5-14.76 21.84 22.01-14.78-8.07 24.12 20.16-19.82-0.9-12.14-20.3-11.41z" fill-rule="evenodd" stroke="#000" stroke-linecap="round" stroke-width="6.5736" fill="#484848"/>
    <g id="g3204" stroke-linejoin="round" filter="url(#filter3272)" stroke="#000" transform="matrix(.35059 0 0 .35059 236.13 148.88)">
      <path id="path3207" stroke-width="15" d="m358.42-209.97c-85.99 0-155.8 51.26-155.8 114.44 0 18.648 99.75 239.11 110.53 254.68 89.72-26.17 0.13-22.79 89.24 1.91 11.62-16.02 111.84-237.18 111.84-256.59 0-63.18-69.81-114.44-155.81-114.44z"/>
      <path id="path3209" d="m517.14 466.65a137.86 92.857 0 1 1 -275.71 0 137.86 92.857 0 1 1 275.71 0z" stroke-width="39.303" transform="matrix(.36427 0 0 .55878 219.17 -80.35)"/>
    </g>
    <path id="path3298" stroke-linejoin="round" d="m324.33 81.313c-6.57-16.92-36.18-37.07-65.25-52.226-3.96 75.213 27.55 108.14 57.25 97.543-0.31-15.99-3.31-32.781 8-45.317z" fill-rule="evenodd" stroke="#000" stroke-linecap="round" stroke-width="5.2589" fill="#484848"/>
    <g id="g3200" stroke-linejoin="round" stroke="#000" transform="matrix(.35059 0 0 .35059 236.13 143.97)">
      <path id="path3195" d="m358.42-209.97c-85.99 0-155.8 51.26-155.8 114.44 0 18.648 99.75 239.11 110.53 254.68 89.72-26.17 0.13-22.79 89.24 1.91 11.62-16.02 111.84-237.18 111.84-256.59 0-63.18-69.81-114.44-155.81-114.44z" stroke-width="15" fill="#484848"/>
      <path id="path3160" d="m517.14 466.65a137.86 92.857 0 1 1 -275.71 0 137.86 92.857 0 1 1 275.71 0z" stroke-width="39.303" transform="matrix(.36427 0 0 .55878 219.17 -80.35)"/>
    </g>
    <path id="path3190" stroke-linejoin="round" d="m341.78 102.24c-5.24 0.59-8.47 12.37-7.2 26.31 0.73 8.13 2.84 15.2 5.51 19.57 3.93-2.34 8.19-4.06 12.71-5.07 1.01-4.57 1.34-10.4 0.77-16.64-1.26-13.94-6.55-24.76-11.79-24.17z" stroke="#000" stroke-width=".4654" fill="#fff"/>
    <path id="path3191" stroke-linejoin="round" d="m338.57 367.01a8.2143 16.429 0 1 1 -16.43 0 8.2143 16.429 0 1 1 16.43 0z" transform="matrix(.43263 -.048809 .068399 .75365 176.78 -129.46)" stroke="#000" stroke-width=".81091"/>
    <path id="path3204" stroke-linejoin="round" d="m380.5 101.69c5.25 0.59 8.47 12.37 7.2 26.31-0.73 8.13-2.84 15.2-5.51 19.57-3.93-2.35-8.19-4.06-12.71-5.07-1.01-4.57-1.34-10.4-0.77-16.64 1.26-13.94 6.55-24.77 11.79-24.17z" stroke="#000" stroke-width=".4654" fill="#fff"/>
    <path id="path3206" stroke-linejoin="round" d="m338.57 367.01a8.2143 16.429 0 1 1 -16.43 0 8.2143 16.429 0 1 1 16.43 0z" transform="matrix(-.43263 -.048809 -.068399 .75365 545.5 -130.02)" stroke="#000" stroke-width=".81091"/>
  </g>
  <metadata>
    <rdf:RDF>
      <cc:Work>
        <dc:format>image/svg+xml</dc:format>
        <dc:type rdf:resource="http://purl.org/dc/dcmitype/StillImage"/>
        <cc:license rdf:resource="http://creativecommons.org/licenses/publicdomain/"/>
        <dc:publisher>
          <cc:Agent rdf:about="http://openclipart.org/">
            <dc:title>Openclipart</dc:title>
          </cc:Agent>
        </dc:publisher>
        <dc:title>Mouse</dc:title>
        <dc:date>2008-02-01T17:20:35</dc:date>
        <dc:description>A mouse.&#xD;\n&#xD;\nUm rato.</dc:description>
        <dc:source>http://openclipart.org/detail/12487/mouse-by-bsantos</dc:source>
        <dc:creator>
          <cc:Agent>
            <dc:title>bsantos</dc:title>
          </cc:Agent>
        </dc:creator>
        <dc:subject>
          <rdf:Bag>
            <rdf:li>animal</rdf:li>
            <rdf:li>cartoon</rdf:li>
            <rdf:li>clip art</rdf:li>
            <rdf:li>clipart</rdf:li>
            <rdf:li>image</rdf:li>
            <rdf:li>media</rdf:li>
            <rdf:li>mouse</rdf:li>
            <rdf:li>public domain</rdf:li>
            <rdf:li>rato</rdf:li>
            <rdf:li>svg</rdf:li>
          </rdf:Bag>
        </dc:subject>
      </cc:Work>
      <cc:License rdf:about="http://creativecommons.org/licenses/publicdomain/">
        <cc:permits rdf:resource="http://creativecommons.org/ns#Reproduction"/>
        <cc:permits rdf:resource="http://creativecommons.org/ns#Distribution"/>
        <cc:permits rdf:resource="http://creativecommons.org/ns#DerivativeWorks"/>
      </cc:License>
    </rdf:RDF>
  </metadata>
</svg>
